<?xml version="1.0" encoding="UTF-8" standalone="no"?>
<!-- Created with Inkscape (http://www.inkscape.org/) -->

<svg
   xmlns:dc="http://purl.org/dc/elements/1.1/"
   xmlns:cc="http://creativecommons.org/ns#"
   xmlns:rdf="http://www.w3.org/1999/02/22-rdf-syntax-ns#"
   xmlns:svg="http://www.w3.org/2000/svg"
   xmlns="http://www.w3.org/2000/svg"
   xmlns:sodipodi="http://sodipodi.sourceforge.net/DTD/sodipodi-0.dtd"
   xmlns:inkscape="http://www.inkscape.org/namespaces/inkscape"
   width="929px"
   height="685px"
   viewBox="0 0 929 685"
   version="1.1"
   id="SVGRoot"
   inkscape:version="0.92.5 (2060ec1f9f, 2020-04-08)"
   sodipodi:docname="SCTV.svg">
  <defs
     id="defs899" />
  <sodipodi:namedview
     id="base"
     pagecolor="#ffffff"
     bordercolor="#666666"
     borderopacity="1.0"
     inkscape:pageopacity="0.0"
     inkscape:pageshadow="2"
     inkscape:zoom="0.35"
     inkscape:cx="464.5"
     inkscape:cy="342.5"
     inkscape:document-units="px"
     inkscape:current-layer="layer1"
     showgrid="false"
     inkscape:window-width="1920"
     inkscape:window-height="1001"
     inkscape:window-x="-9"
     inkscape:window-y="-9"
     inkscape:window-maximized="1" />
  <metadata
     id="metadata902">
    <rdf:RDF>
      <cc:Work
         rdf:about="">
        <dc:format>image/svg+xml</dc:format>
        <dc:type
           rdf:resource="http://purl.org/dc/dcmitype/StillImage" />
        <dc:title></dc:title>
      </cc:Work>
    </rdf:RDF>
  </metadata>
  <g
     inkscape:label="Layer 1"
     inkscape:groupmode="layer"
     id="layer1">
    <path
       style="fill:#ffffff;fill-opacity:1;stroke:none;stroke-width:0.99999994px;stroke-linecap:butt;stroke-linejoin:miter;stroke-opacity:1"
       d="M 727.09166,113.98859 C 646.46436,115.28208 595.15613,122.18 595.15613,122.18 481.32932,134.46812 431.74597,150.85188 431.74597,150.85188 309.94266,181.67999 250.65808,221.77766 250.65808,221.77766 212.28287,241.43042 175.27743,270.75779 149.31042,293.61554 80.43905,316.77161 64.044839,378.30908 60.146358,405.56673 44.683041,433.41429 29.062329,467.43526 18.302611,505.50814 -11.010842,609.23259 3.6463588,682.37533 3.6463588,682.37533 l 717.1933612,2.11521 v -8.1953 L 894.99404,289.60187 H 775.7245 l -57.25587,113.17187 -38.96289,-114.12696 -266.55469,0.98831 c 0,0 -45.33853,3.52921 -85.99805,42 -17.1595,-13.21565 -37.2091,-25.63378 -59.68164,-34.33792 61.98991,-57.13049 118.77149,-83.49607 118.77149,-83.49608 166.42857,-90.54401 340.83398,-94.85546 340.83398,-94.85546 z M 208.71277,397.83234 c 1.02357,0.0113 1.64258,0.082 1.64258,0.082 15.87007,-0.59323 42.30919,12.39352 64.27734,25.14648 -1.83747,6.33128 -3.43249,12.86041 -4.68945,19.68556 -17.47298,-7.33644 -35.25354,-11.01989 -48.05664,-12.54686 -31.4202,-3.74737 -31.99805,-18.44727 -31.99805,-18.44727 2.34209,-12.88154 14.38875,-13.96622 18.82422,-13.91993 z m 225.05078,20.97854 h 80.80468 v 129.20114 h -80.38281 c 0,0 -43.40429,-7.57477 -43.40429,-63.12695 0,0 -2.57351,-55.58423 42.98242,-66.07419 z m 211.13476,95.02148 68.71287,153.76365 -69.90232,-0.14437 z m -517.88867,7.52927 c 9.15461,3.3699 20.35642,6.64124 31.07813,7.50391 24.14169,1.94245 26.36133,8.60156 26.36133,8.60156 0,0 9.15795,9.15693 2.2207,15.26174 0,0 -32.16056,12.54425 -65.46289,-6.61916 1.12909,-5.80589 1.91211,-9.5957 1.91211,-9.5957 1.21717,-5.11767 2.51742,-10.16662 3.89062,-15.15235 z m 183.46875,86.084 c 6.62034,9.96 14.11616,18.63998 22.56641,25.07225 0,0 25.17872,24.23414 58,34.40625 l -170.4375,-0.35566 c 21.42006,-5.89447 64.56775,-21.86664 89.87109,-59.12303 z m -205.17578,51.85353 c 6.83428,2.61354 13.85979,5.03512 20.82227,7.07225 l -21.29883,-0.045 c 0.14116,-2.32936 0.30417,-4.67542 0.47656,-7.02731 z"
       id="path828"
       inkscape:connector-curvature="0" />
    <path
       style="fill:#fbe400;fill-opacity:1;stroke:none;stroke-width:0.99999994px;stroke-linecap:butt;stroke-linejoin:miter;stroke-opacity:1"
       d="m 716.03064,672.75855 v 8.30112 L 7.2805598,677.90524 c 0,0 -7.47103005,-49.80673 3.4864632,-113.55938 0,0 8.633197,-72.71785 48.146533,-145.43569 0,0 -12.949758,73.71397 64.084684,101.60575 0,0 -3.98453,11.41444 -5.97679,23.03604 0,0 -3.88263,-1.65695 -30.584316,-22.0399 l -45.577588,99.80349 c 0,0 -2.594306,4.61215 5.188649,8.93601 7.782992,4.32389 19.889839,12.39511 54.769135,27.38457 0,0 -0.864757,5.47691 -1.153021,12.97164 z"
       id="path832"
       inkscape:connector-curvature="0"
       sodipodi:nodetypes="cccccccc" />
    <path
       style="fill:#ea2627;fill-opacity:1;stroke:none;stroke-width:0.99999994px;stroke-linecap:butt;stroke-linejoin:miter;stroke-opacity:1"
       d="m 263.08504,636.99514 c -48.88123,26.94562 -87.11317,25.00472 -87.11317,25.00472 -60.7641,0.26872 -123.410302,-40.46465 -123.410302,-40.46465 L 90.454394,538.0693 c 0,0 23.457106,17.74216 42.300476,25.64927 0,0 19.67183,7.44049 48.28958,2.17984 0,0 19.35909,-1.6834 19.35909,-18.30697 0,-16.62354 -15.36099,-23.77799 -15.36099,-23.77799 0,0 -7.78571,-4.83976 -20.20078,-4.62936 -20.62163,-2.10413 -40.61201,-9.04826 -45.03092,-11.57336 0,0 -32.194995,-12.20463 -45.241319,-44.39963 -13.046363,-32.19499 1.052107,-77.43632 1.052107,-77.43632 0,0 9.469115,-46.29347 59.550232,-74.27996 0,0 25.88225,-15.99228 71.12357,-15.78187 0,0 52.18535,-2.73551 111.10429,42.29541 0,0 -32.82626,42.08496 -42.29537,72.80696 0,0 -43.34752,-25.46143 -67.75677,-23.56758 -22.72593,0.8417 -29.24905,18.30697 -27.98654,24.83014 0,0 -1.68336,23.56758 41.03287,28.82819 42.71622,5.26061 65.23166,22.72588 65.23166,22.72588 0,0 15.46344,8.91614 25.97775,27.17912 6.36117,11.04914 10.16682,27.35694 9.58405,43.73404 0,0 4.78961,64.33629 -58.10234,102.45003 z"
       id="path854"
       inkscape:connector-curvature="0"
       sodipodi:nodetypes="ccccccscccccccccccscsc" />
    <path
       style="fill:#1f97c3;fill-opacity:1;stroke:none;stroke-width:0.99999994px;stroke-linecap:butt;stroke-linejoin:miter;stroke-opacity:1"
       d="m 512.15418,407.13603 h -79.39287 c 0,0 -53.21135,9.12495 -52.98587,78.7852 0,0 -5.41133,58.39721 53.21134,72.82741 h 79.1674 v 103.26611 h -97.88156 c 0,0 -56.36795,-8.11699 -98.30571,-64.25949 0,0 21.19435,-30.43869 15.10661,-77.78775 -6.08774,-47.34909 -34.01882,-62.57144 -50.95662,-71.9255 0,0 11.27358,-69.44534 59.97549,-112.96139 0,0 30.66417,-29.76227 75.08211,-34.2717 h 96.97968 z"
       id="path875"
       inkscape:connector-curvature="0"
       sodipodi:nodetypes="ccccccccsc" />
    <path
       style="fill:#fbe400;fill-opacity:1;stroke:none;stroke-width:0.99999994px;stroke-linecap:butt;stroke-linejoin:miter;stroke-opacity:1"
       d="m 708.7388,407.13603 -36.7519,-108.13092 -146.55668,1.57833 v 361.43131 h 107.55007 l 2.02923,-254.87872 z"
       id="path885"
       inkscape:connector-curvature="0"
       sodipodi:nodetypes="ccc" />
    <path
       style="fill:#165d9a;fill-opacity:1;stroke:none;stroke-width:0.99999994px;stroke-linecap:butt;stroke-linejoin:miter;stroke-opacity:1"
       d="m 721.59067,420.53442 -74.85661,-0.67643 v 70.79815 L 718.88502,652.99585 877.84265,300.5834 h -95.14911 z"
       id="path889"
       inkscape:connector-curvature="0" />
    <path
       style="fill:#ffffff;fill-opacity:1;stroke:none;stroke-width:0.99999994px;stroke-linecap:butt;stroke-linejoin:miter;stroke-opacity:1"
       d="m 854.17034,0.50946 4.53622,1.9845997 -9.07245,64.3576903 79.38395,2.835141 -68.61041,35.722769 -1.13404,69.46097 -43.37768,-41.10956 -52.45009,34.5887 24.94923,-54.7182 -49.9383,-43.268514 69.78429,-2.944275 z"
       id="path891"
       inkscape:connector-curvature="0"
       sodipodi:nodetypes="cccccccccccc" />
    <path
       style="fill:#fbe400;fill-opacity:1;stroke:none;stroke-width:0.99999994px;stroke-linecap:butt;stroke-linejoin:miter;stroke-opacity:1"
       d="m 851.97942,12.886528 -40.54216,58.716243 -60.28902,3.145508 43.16345,37.571411 -19.57209,42.28967 41.24118,-27.26111 38.79466,35.82391 1.92223,-61.16276 53.998,-28.134868 -66.58005,-2.970762 z"
       id="path893"
       inkscape:connector-curvature="0"
       sodipodi:nodetypes="cccc" />
    <path
       style="fill:#fbe400;fill-opacity:1;stroke:none;stroke-width:0.99999994px;stroke-linecap:butt;stroke-linejoin:miter;stroke-opacity:1"
       d="m 161.31513,290.0378 c 0,0 47.51414,-13.51812 99.84659,5.3537 0,0 88.76883,-85.41745 221.64481,-130.08803 0,0 84.41978,-31.4208 171.11094,-42.77773 0,0 -123.79043,2.27139 -254.7736,42.02062 -130.98315,39.74921 -202.71281,93.87879 -237.82874,125.49144 z"
       id="path897"
       inkscape:connector-curvature="0"
       sodipodi:nodetypes="ccc" />
  </g>
</svg>
